<?xml version="1.0" standalone="no"?>
<!DOCTYPE svg PUBLIC "-//W3C//DTD SVG 20010904//EN"
 "http://www.w3.org/TR/2001/REC-SVG-20010904/DTD/svg10.dtd">
<svg version="1.0" xmlns="http://www.w3.org/2000/svg"
 width="600.000000pt" height="338.000000pt" viewBox="0 0 600.000000 338.000000"
 preserveAspectRatio="xMidYMid meet">
<g transform="translate(0.000000,338.000000) scale(0.100000,-0.100000)"
fill="#a6b28b" stroke="none">
<path d="M2737 2043 c-3 -5 -6 -177 -6 -382 l0 -373 173 4 172 3 75 37 c179
89 171 284 -15 339 -56 16 -57 21 -5 44 151 68 139 253 -19 310 -53 20 -365
34 -375 18z m311 -63 c50 -31 74 -76 69 -133 -8 -93 -67 -138 -189 -145 l-79
-5 3 144 3 143 25 7 c53 15 134 9 168 -11z m-58 -321 c166 -38 220 -217 87
-292 -53 -31 -104 -40 -173 -31 l-54 6 0 164 0 164 48 0 c26 0 67 -5 92 -11z"/>
</g>
</svg>
